<?xml version="1.0" standalone="no"?><!DOCTYPE svg PUBLIC "-//W3C//DTD SVG 1.1//EN" "http://www.w3.org/Graphics/SVG/1.1/DTD/svg11.dtd"><svg t="1585032546714" class="icon" viewBox="0 0 1024 1024" version="1.1" xmlns="http://www.w3.org/2000/svg" p-id="13303" xmlns:xlink="http://www.w3.org/1999/xlink" width="75" height="75"><defs><style type="text/css"></style></defs><path d="M750.8 256.6v-1-1.8c0-0.7 0-1.3-0.1-2 0-0.6-0.1-1.2-0.1-1.8v-0.9-0.5c-0.1-2.1-0.3-4.2-0.5-6.2v-0.4c0-0.2 0-0.3-0.1-0.5-0.2-2-0.5-4-0.8-6v-0.3c0-0.2-0.1-0.3-0.1-0.5-0.3-2-0.7-4-1.1-5.9v-0.1c0-0.1 0-0.2-0.1-0.3-0.4-2-0.9-4-1.4-6v-0.1c-0.5-2-1.1-4-1.7-5.9v-0.1-0.1c-0.2-0.6-0.4-1.1-0.6-1.7-0.2-0.5-0.3-0.9-0.5-1.4-0.2-0.6-0.4-1.1-0.6-1.7-0.2-0.4-0.3-0.8-0.5-1.2-0.4-1-0.8-2-1.2-2.9l-0.3-0.6c-0.3-0.7-0.6-1.5-1-2.2v-0.1l-0.3-0.6c-0.3-0.7-0.7-1.4-1.1-2.1-0.2-0.3-0.4-0.7-0.5-1-0.3-0.6-0.6-1.2-0.9-1.7-0.1-0.1-0.1-0.2-0.2-0.3-0.1-0.2-0.3-0.4-0.4-0.7-0.4-0.6-0.7-1.2-1.1-1.9-0.2-0.3-0.4-0.7-0.6-1-0.4-0.6-0.8-1.2-1.1-1.8-0.1-0.2-0.3-0.4-0.4-0.6-0.1-0.1-0.1-0.2-0.2-0.3-0.6-0.9-1.3-1.8-2-2.7 0 0 0-0.1-0.1-0.1-0.7-0.9-1.3-1.7-2-2.5-0.1-0.1-0.2-0.2-0.2-0.3-0.1-0.1-0.2-0.2-0.3-0.4-0.7-0.9-1.5-1.7-2.2-2.5l-0.3-0.3c-0.8-0.9-1.7-1.7-2.6-2.6l-0.3-0.3c-0.2-0.2-0.4-0.3-0.6-0.5-0.3-0.3-0.6-0.6-1-0.9-0.3-0.3-0.7-0.6-1-0.9-0.3-0.3-0.7-0.6-1-0.8-0.3-0.3-0.7-0.6-1.1-0.8-0.3-0.3-0.7-0.5-1-0.8-0.4-0.3-0.7-0.5-1.1-0.8-0.3-0.2-0.7-0.5-1-0.7-0.1-0.1-0.3-0.2-0.4-0.3-0.1-0.1-0.3-0.2-0.4-0.2-1.1-0.7-2.1-1.4-3.3-2l-43.9-25.5c0.2 0 0.5-0.1 0.7-0.1 0.5-0.1 1.1-0.2 1.6-0.2 0.6-0.1 1.1-0.1 1.6-0.2s1-0.1 1.6-0.2c0.7-0.1 1.4-0.1 2.1-0.2 0.4 0 0.8-0.1 1.2-0.1 0.9-0.1 1.9-0.1 2.8-0.1h4.6c0.7 0 1.5 0 2.2 0.1 0.4 0 0.8 0 1.2 0.1 0.6 0 1.3 0.1 1.9 0.1 0.4 0 0.9 0.1 1.3 0.1 0.6 0.1 1.2 0.1 1.8 0.2 0.4 0.1 0.9 0.1 1.3 0.2 0.6 0.1 1.1 0.2 1.7 0.2 0.4 0.1 0.9 0.1 1.3 0.2 0.6 0.1 1.1 0.2 1.7 0.3 0.4 0.1 0.9 0.2 1.3 0.3 0.5 0.1 1.1 0.2 1.6 0.4 0.4 0.1 0.9 0.2 1.3 0.3 0.5 0.1 1.1 0.3 1.6 0.4 0.4 0.1 0.8 0.2 1.3 0.4s1 0.3 1.6 0.5c0.4 0.1 0.8 0.3 1.2 0.4 0.5 0.2 1 0.4 1.5 0.5 0.4 0.1 0.8 0.3 1.2 0.4 0.5 0.2 1 0.4 1.6 0.6 0.4 0.2 0.8 0.3 1.1 0.5 0.5 0.2 1.1 0.5 1.6 0.7 0.3 0.2 0.7 0.3 1 0.5 0.6 0.3 1.1 0.6 1.7 0.9 0.3 0.1 0.6 0.3 0.9 0.4 0.8 0.4 1.7 0.9 2.5 1.4l-57.5-33.4c-0.8-0.5-1.7-0.9-2.5-1.4-0.3-0.1-0.6-0.3-0.9-0.4-0.6-0.3-1.1-0.6-1.7-0.9-0.3-0.2-0.7-0.3-1-0.5-0.5-0.2-1.1-0.5-1.6-0.7-0.4-0.2-0.8-0.3-1.1-0.5-0.5-0.2-1-0.4-1.6-0.6-0.4-0.2-0.8-0.3-1.2-0.4-0.5-0.2-1-0.4-1.6-0.5-0.4-0.1-0.8-0.3-1.2-0.4-0.5-0.2-1-0.3-1.6-0.5-0.4-0.1-0.8-0.2-1.3-0.4-0.5-0.1-1.1-0.3-1.6-0.4-0.4-0.1-0.9-0.2-1.3-0.3-0.5-0.1-1.1-0.2-1.6-0.4-0.4-0.1-0.9-0.2-1.3-0.3-0.5-0.1-1.1-0.2-1.7-0.3-0.4-0.1-0.9-0.2-1.3-0.2-0.6-0.1-1.1-0.2-1.7-0.2-0.4-0.1-0.9-0.1-1.3-0.2-0.6-0.1-1.2-0.1-1.8-0.2-0.4 0-0.9-0.1-1.3-0.1-0.6-0.1-1.3-0.1-1.9-0.1-0.4 0-0.8-0.1-1.2-0.1-0.7 0-1.5 0-2.2-0.1H621.5c-0.9 0-1.9 0.1-2.8 0.1-0.4 0-0.8 0.1-1.1 0.1-0.7 0-1.4 0.1-2.1 0.2h-0.2c-0.4 0-0.9 0.1-1.3 0.1-0.6 0.1-1.1 0.1-1.7 0.2-0.5 0.1-1.1 0.1-1.6 0.2-0.6 0.1-1.1 0.1-1.7 0.2-0.5 0.1-1.1 0.2-1.6 0.3-0.6 0.1-1.1 0.2-1.7 0.3-0.5 0.1-1.1 0.2-1.6 0.3-0.6 0.1-1.1 0.2-1.7 0.3-0.1 0-0.2 0-0.3 0.1-0.2 0-0.4 0.1-0.6 0.1-1.4 0.3-2.7 0.6-4.1 1-0.3 0.1-0.6 0.1-0.9 0.2-1.5 0.4-3.1 0.8-4.6 1.3-0.1 0-0.3 0.1-0.4 0.1-0.3 0.1-0.5 0.2-0.8 0.2-1 0.3-2.1 0.7-3.1 1-0.4 0.1-0.8 0.3-1.2 0.4-2.7 0.9-5.4 2-8.2 3.1-0.4 0.2-0.8 0.4-1.3 0.5-0.9 0.4-1.8 0.8-2.8 1.2-0.2 0.1-0.4 0.2-0.7 0.3-0.3 0.1-0.6 0.3-0.9 0.4-0.8 0.3-1.5 0.7-2.3 1.1-0.5 0.3-1.1 0.5-1.6 0.8-0.8 0.4-1.6 0.8-2.3 1.2-0.3 0.2-0.7 0.3-1 0.5-0.4 0.2-0.7 0.4-1.1 0.6-0.1 0.1-0.2 0.1-0.3 0.2-0.1 0.1-0.2 0.1-0.3 0.2-0.1 0.1-0.2 0.1-0.3 0.2-0.1 0.1-0.2 0.2-0.3 0.2l-0.1 0.1-0.2 0.2-0.3 0.3-0.3 0.3-0.3 0.3-0.1 0.1-0.2 0.2c-0.1 0.1-0.2 0.2-0.3 0.4-0.1 0.1-0.2 0.3-0.3 0.4-0.1 0.1-0.2 0.2-0.2 0.3v0.1s0 0.1-0.1 0.1c-0.1 0.2-0.3 0.4-0.4 0.6-0.2 0.2-0.3 0.5-0.5 0.7v0.1c-0.1 0.2-0.2 0.3-0.2 0.5-0.2 0.4-0.4 0.7-0.6 1.1-0.1 0.2-0.2 0.4-0.2 0.6-0.1 0.2-0.2 0.5-0.3 0.7 0 0.1-0.1 0.2-0.1 0.4 0 0.1 0 0.1-0.1 0.2 0 0.1-0.1 0.2-0.1 0.3-0.1 0.2-0.1 0.5-0.2 0.7 0 0.2-0.1 0.4-0.1 0.6 0 0.1 0 0.3-0.1 0.4v2.4c0 0.1 0 0.2 0.1 0.3 0 0.1 0 0.2 0.1 0.3 0 0.1 0.1 0.2 0.1 0.3 0 0.1 0.1 0.2 0.1 0.3 0 0.1 0.1 0.2 0.1 0.3 0 0.1 0.1 0.2 0.2 0.3 0.1 0.1 0.1 0.2 0.2 0.3 0.1 0.1 0.1 0.2 0.2 0.3 0.1 0.1 0.1 0.2 0.2 0.2 0.1 0.1 0.3 0.2 0.4 0.3 0.1 0 0.1 0.1 0.2 0.1L617 178c-0.3-0.2-0.6-0.4-0.8-0.7l-0.6-0.9c-0.2-0.4-0.3-0.8-0.4-1.2-0.1-0.5-0.1-0.9-0.1-1.5 0-0.5 0-1.1 0.1-1.7 0.1-0.5 0.2-1.1 0.4-1.6 0-0.1 0-0.1 0.1-0.2 0.1-0.4 0.3-0.7 0.4-1.1 0.1-0.2 0.2-0.4 0.2-0.6 0.2-0.4 0.4-0.7 0.5-1.1 0.1-0.2 0.2-0.3 0.2-0.5 0.3-0.5 0.6-1 0.9-1.4v-0.1c0.3-0.5 0.7-0.9 1.1-1.3l1.2-1.2c0.4-0.4 0.9-0.7 1.4-0.9L604 151.8l17.6 10.2c0.7-0.4 1.4-0.7 2.1-1.1l2.4-1.2c0.5-0.3 1.1-0.5 1.6-0.8 0.8-0.4 1.5-0.7 2.3-1.1 0.5-0.2 1-0.5 1.5-0.7 0.9-0.4 1.8-0.8 2.8-1.2 0.4-0.2 0.8-0.4 1.3-0.5 1.3-0.6 2.6-1.1 4-1.6l4.2-1.5c0.4-0.1 0.8-0.3 1.2-0.4 1-0.4 2.1-0.7 3.1-1 0.4-0.1 0.8-0.2 1.2-0.4 1.6-0.5 3.1-0.9 4.6-1.3 0.3-0.1 0.6-0.2 0.9-0.2 1.4-0.4 2.7-0.7 4.1-1 0.3-0.1 0.6-0.1 0.9-0.2 0.6-0.1 1.1-0.2 1.7-0.3 0.5-0.1 1.1-0.2 1.6-0.3 0.6-0.1 1.1-0.2 1.7-0.3h0.2c0.3 0.3 0.6 0.5 0.9 0.8 0.9 0.8 1.8 1.7 2.6 2.6l0.3 0.3c0.8 0.8 1.5 1.7 2.2 2.5 0.2 0.2 0.4 0.4 0.6 0.7 0.7 0.8 1.4 1.7 2 2.5l0.1 0.1c0.7 0.9 1.3 1.8 2 2.7l0.6 0.9c0.4 0.6 0.8 1.2 1.1 1.8 0.2 0.3 0.4 0.7 0.6 1 0.4 0.6 0.7 1.2 1.1 1.9 0.2 0.3 0.4 0.6 0.6 1 0.3 0.6 0.6 1.2 0.9 1.7 0.2 0.3 0.4 0.7 0.5 1 0.4 0.7 0.7 1.4 1.1 2.1 0.1 0.2 0.2 0.5 0.3 0.7 0.3 0.7 0.7 1.5 1 2.2l0.3 0.6c0.4 1 0.8 1.9 1.2 2.9 0.2 0.4 0.3 0.8 0.5 1.2 0.2 0.6 0.4 1.1 0.6 1.7 0.2 0.4 0.3 0.9 0.5 1.3 0.2 0.6 0.4 1.1 0.6 1.7 0 0.1 0 0.1 0.1 0.2 0.6 1.9 1.2 3.9 1.7 5.9v0.1c0.5 1.9 1 3.9 1.4 6 0 0.1 0.1 0.3 0.1 0.4 0.4 1.9 0.7 3.9 1.1 5.9 0 0.2 0.1 0.5 0.1 0.7 0.3 2 0.5 4 0.8 6 0 0.3 0.1 0.6 0.1 0.9 0.2 2 0.4 4.1 0.5 6.2 0 0.5 0.1 0.9 0.1 1.4 0 0.6 0.1 1.2 0.1 1.8 0 0.7 0.1 1.3 0.1 2v4.8c0 1.8 0 3.6-0.1 5.4v1.5c0 0.8-0.1 1.5-0.1 2.3 0 0.6-0.1 1.2-0.1 1.9 0 0.8-0.1 1.5-0.1 2.3 0 0.6-0.1 1.2-0.1 1.8-0.1 0.9-0.2 1.9-0.2 2.8 0 0.5-0.1 1-0.1 1.5-0.1 1.2-0.2 2.4-0.4 3.6 0 0.2-0.1 0.5-0.1 0.7-0.2 1.5-0.4 3.1-0.6 4.6-0.1 0.5-0.1 0.9-0.2 1.4-0.2 1.1-0.3 2.2-0.5 3.3l-0.3 1.5c-0.2 1.4-0.5 2.9-0.8 4.3-0.1 0.3-0.1 0.6-0.2 0.8-0.3 1.7-0.7 3.4-1 5.1l-0.3 1.2c-0.4 1.9-0.8 3.8-1.3 5.7 0 0.1-0.1 0.3-0.1 0.4l-1.5 6c-0.1 0.4-0.2 0.7-0.3 1.1-0.7 2.5-1.4 5.1-2.2 7.6l-0.3 0.9c-0.8 2.6-1.6 5.1-2.5 7.7-0.1 0.3-0.2 0.5-0.3 0.8-0.8 2.2-1.6 4.5-2.4 6.7-0.1 0.4-0.3 0.7-0.4 1.1-0.8 2.2-1.7 4.4-2.5 6.6-0.1 0.4-0.3 0.7-0.4 1.1l-2.7 6.6c-0.1 0.3-0.3 0.7-0.4 1-1 2.2-1.9 4.4-3 6.6-0.1 0.2-0.2 0.5-0.3 0.7l-3.3 6.9c0 0.1-0.1 0.1-0.1 0.2-1.1 2.3-2.3 4.6-3.5 6.8-0.1 0.2-0.2 0.3-0.3 0.5-1.2 2.2-2.3 4.4-3.6 6.6-0.2 0.3-0.3 0.6-0.5 0.8l-3.6 6.3c-0.2 0.3-0.4 0.7-0.6 1-1.3 2.2-2.6 4.3-3.9 6.5-0.2 0.3-0.4 0.6-0.6 1-1.3 2.1-2.7 4.2-4.1 6.3-0.2 0.4-0.5 0.7-0.7 1.1-1.1 1.7-2.2 3.3-3.4 5l-0.1 0.1c-1.1 1.6-2.2 3.2-3.4 4.8l-0.9 1.2c-0.9 1.2-1.7 2.3-2.6 3.5-0.2 0.3-0.4 0.5-0.6 0.8-1.1 1.4-2.1 2.8-3.2 4.2l-0.9 1.2c-0.7 0.9-1.4 1.8-2.2 2.7-0.4 0.5-0.7 0.9-1.1 1.4-0.7 0.9-1.4 1.7-2.1 2.6-0.3 0.4-0.6 0.7-0.9 1.1-2.1 2.5-4.2 4.9-6.4 7.4l-0.1 0.1c-2 2.2-4.1 4.4-6.1 6.6l-0.5 0.5c-1.9 2-3.8 3.9-5.7 5.8l-0.6 0.6c-1.8 1.8-3.7 3.6-5.6 5.3-0.2 0.2-0.5 0.4-0.7 0.6-1.8 1.6-3.6 3.3-5.5 4.8-0.2 0.2-0.5 0.4-0.7 0.6-1.8 1.6-3.7 3.1-5.6 4.6-0.2 0.2-0.4 0.3-0.6 0.5-1.9 1.5-3.8 3-5.7 4.4-0.2 0.1-0.3 0.2-0.5 0.3-2 1.5-4 2.9-6 4.3-0.1 0.1-0.2 0.1-0.3 0.2-2.1 1.4-4.2 2.8-6.3 4.1-0.1 0.1-0.2 0.1-0.3 0.2s-0.2 0.1-0.3 0.2c-0.1 0.1-0.2 0.2-0.3 0.2l-0.3 0.3c-0.1 0.1-0.2 0.1-0.2 0.2l-0.3 0.3-0.3 0.3-0.3 0.3-0.3 0.3c-0.1 0.1-0.2 0.3-0.3 0.4-0.1 0.2-0.2 0.3-0.3 0.5l-0.1 0.1s0 0.1-0.1 0.1c-0.1 0.1-0.2 0.2-0.2 0.3-0.2 0.2-0.3 0.5-0.5 0.7 0 0.1-0.1 0.1-0.1 0.2-0.1 0.2-0.2 0.4-0.3 0.7-0.1 0.3-0.3 0.6-0.4 0.9-0.1 0.2-0.2 0.5-0.3 0.7-0.1 0.2-0.2 0.4-0.2 0.5-0.1 0.2-0.1 0.3-0.2 0.5 0 0.1 0 0.1-0.1 0.2v0.2c-0.1 0.2-0.1 0.5-0.2 0.7 0 0.2-0.1 0.4-0.1 0.6V467.8c0 0.1 0 0.2 0.1 0.3 0 0.1 0.1 0.2 0.1 0.3 0 0.1 0.1 0.2 0.1 0.3 0 0.1 0.1 0.2 0.1 0.3 0 0.1 0.1 0.2 0.1 0.3 0.1 0.1 0.1 0.2 0.2 0.3 0.1 0.1 0.1 0.2 0.2 0.3l0.2 0.2c0.1 0.1 0.3 0.2 0.4 0.3 0.1 0 0.1 0.1 0.2 0.1l57.5 33.4c-0.3-0.2-0.6-0.4-0.8-0.6l-0.6-0.9c-0.2-0.4-0.3-0.8-0.4-1.2-0.1-0.4-0.1-0.9-0.1-1.4 0-0.5 0-1 0.1-1.6v-0.1l0.3-1.5c0-0.1 0-0.1 0.1-0.2 0.1-0.4 0.2-0.7 0.4-1.1 0.1-0.2 0.2-0.5 0.3-0.7 0.1-0.3 0.3-0.6 0.4-0.9 0.1-0.2 0.2-0.4 0.3-0.7 0.2-0.4 0.5-0.9 0.8-1.3 0 0 0-0.1 0.1-0.1 0.3-0.5 0.7-0.9 1-1.3l1.2-1.2c0.4-0.4 0.9-0.7 1.3-1 2.1-1.3 4.2-2.7 6.2-4.1 0.1 0 0.1-0.1 0.2-0.1 0 0 0.1 0 0.1-0.1 2-1.4 4-2.8 6-4.3 0.1-0.1 0.2-0.1 0.3-0.2l0.1-0.1c1.9-1.4 3.8-2.9 5.7-4.4 0.1-0.1 0.3-0.2 0.4-0.3l0.2-0.2c1.9-1.5 3.7-3 5.6-4.6 0.1-0.1 0.3-0.2 0.4-0.3 0.1-0.1 0.2-0.2 0.3-0.2 1.8-1.6 3.7-3.2 5.5-4.8 0.1-0.1 0.3-0.2 0.4-0.4l0.3-0.3c1.9-1.7 3.7-3.5 5.6-5.3 0.1-0.1 0.3-0.2 0.4-0.4l0.2-0.2c1.9-1.9 3.9-3.8 5.8-5.8l0.3-0.3 0.2-0.2c2.1-2.2 4.1-4.3 6.1-6.6l0.1-0.1c2.2-2.4 4.3-4.9 6.4-7.4 0.1-0.1 0.1-0.2 0.2-0.3 0.2-0.3 0.5-0.6 0.7-0.8 0.7-0.9 1.4-1.7 2.2-2.6 0.4-0.5 0.7-0.9 1.1-1.4 0.7-0.9 1.5-1.8 2.2-2.7 0.2-0.3 0.5-0.6 0.7-0.9 0.1-0.1 0.2-0.2 0.2-0.3 1.1-1.4 2.2-2.8 3.2-4.2 0.2-0.3 0.4-0.5 0.6-0.8 0.9-1.2 1.7-2.3 2.6-3.5 0.2-0.2 0.3-0.4 0.5-0.6 0.1-0.2 0.3-0.4 0.4-0.6 1.1-1.6 2.3-3.2 3.4-4.8l0.1-0.1c1.1-1.6 2.2-3.3 3.4-5 0.1-0.2 0.3-0.4 0.4-0.6 0.1-0.2 0.2-0.3 0.3-0.5 1.4-2.1 2.7-4.2 4.1-6.3 0.2-0.3 0.4-0.6 0.6-1 1.3-2.1 2.6-4.3 3.9-6.5 0.1-0.1 0.2-0.3 0.3-0.4l0.3-0.6 3.6-6.3c0.2-0.3 0.3-0.6 0.5-0.8l3.6-6.6c0.1-0.2 0.2-0.3 0.3-0.5 1.2-2.3 2.3-4.5 3.5-6.8 0-0.1 0.1-0.1 0.1-0.2l3.3-6.9c0.1-0.2 0.2-0.5 0.3-0.7l3-6.6c0.1-0.3 0.3-0.7 0.4-1l2.7-6.6c0.1-0.4 0.3-0.7 0.4-1.1 0.9-2.2 1.7-4.4 2.5-6.6 0.1-0.4 0.3-0.7 0.4-1.1 0.8-2.2 1.6-4.5 2.4-6.7 0-0.1 0.1-0.2 0.1-0.3 0.1-0.2 0.1-0.3 0.2-0.5 0.9-2.6 1.7-5.1 2.5-7.7l0.3-0.9c0.8-2.5 1.5-5.1 2.2-7.6 0-0.1 0.1-0.3 0.1-0.4 0.1-0.2 0.1-0.4 0.2-0.7l1.5-6c0-0.1 0.1-0.3 0.1-0.4 0.5-1.9 0.9-3.8 1.3-5.7 0-0.2 0.1-0.5 0.2-0.7 0-0.2 0.1-0.3 0.1-0.5 0.4-1.7 0.7-3.4 1-5.1 0.1-0.3 0.1-0.6 0.2-0.9 0.3-1.4 0.5-2.9 0.8-4.3 0-0.3 0.1-0.5 0.1-0.8 0-0.3 0.1-0.5 0.1-0.8 0.2-1.1 0.3-2.2 0.5-3.3 0.1-0.5 0.1-0.9 0.2-1.4 0.2-1.5 0.4-3.1 0.6-4.6v-0.1c0-0.2 0-0.4 0.1-0.7 0.1-1.2 0.3-2.4 0.4-3.6 0-0.5 0.1-1 0.1-1.5 0.1-0.9 0.2-1.9 0.2-2.8v-0.6c0-0.4 0-0.8 0.1-1.2 0.1-0.8 0.1-1.5 0.1-2.3 0-0.6 0.1-1.2 0.1-1.9 0-0.8 0.1-1.5 0.1-2.3v-0.9-0.7c0-1.8 0.1-3.6 0.1-5.4 0 0.2-0.1-0.5-0.1-1.2z" fill="#FFDEDE" p-id="13304"></path><path d="M621.8 161.9c79.3-41.5 142.4-2.9 142.7 88.9 0.3 91.8-62.4 203-141.4 252.9-4.1 2.4-7.1 0.7-7.2-3.7 0-4.2 2.8-9.3 6.4-11.5 71.8-45.3 128.8-146.4 128.5-229.8-0.2-83.4-57.6-118.5-129.4-80.9-3.6 1.9-6.4 0.1-6.4-4.1 0-4.4 3.1-9.7 6.8-11.8z" fill="#FFFFFF" p-id="13305"></path><path d="M888.8 376.5v-1-1.8c0-0.7 0-1.3-0.1-2 0-0.6-0.1-1.2-0.1-1.8v-0.9-0.5c-0.1-2.1-0.3-4.2-0.5-6.2v-0.4c0-0.2 0-0.3-0.1-0.5-0.2-2-0.5-4-0.8-6v-0.3c0-0.2-0.1-0.3-0.1-0.5-0.3-2-0.7-4-1.1-5.9v-0.1c0-0.1 0-0.2-0.1-0.3-0.4-2-0.9-4-1.4-6v-0.1c-0.5-2-1.1-4-1.7-5.9v-0.1-0.1c-0.2-0.6-0.4-1.1-0.6-1.7-0.2-0.5-0.3-0.9-0.5-1.4-0.2-0.6-0.4-1.1-0.6-1.7-0.2-0.4-0.3-0.8-0.5-1.2-0.4-1-0.8-2-1.2-2.9l-0.3-0.6c-0.3-0.7-0.6-1.5-1-2.2v-0.1l-0.3-0.6c-0.3-0.7-0.7-1.4-1.1-2.1-0.2-0.3-0.4-0.7-0.5-1-0.3-0.6-0.6-1.2-0.9-1.7-0.1-0.1-0.1-0.2-0.2-0.3-0.1-0.2-0.3-0.4-0.4-0.7-0.4-0.6-0.7-1.2-1.1-1.9-0.2-0.3-0.4-0.7-0.6-1-0.4-0.6-0.8-1.2-1.1-1.8-0.1-0.2-0.3-0.4-0.4-0.6-0.1-0.1-0.1-0.2-0.2-0.3-0.6-0.9-1.3-1.8-2-2.7 0 0 0-0.1-0.1-0.1-0.7-0.9-1.3-1.7-2-2.5-0.1-0.1-0.2-0.2-0.2-0.3-0.1-0.1-0.2-0.2-0.3-0.4-0.7-0.9-1.5-1.7-2.2-2.5l-0.3-0.3c-0.8-0.9-1.7-1.7-2.6-2.6l-0.3-0.3c-0.2-0.2-0.4-0.3-0.6-0.5-0.3-0.3-0.6-0.6-1-0.9-0.3-0.3-0.7-0.6-1-0.9-0.3-0.3-0.7-0.6-1-0.8-0.3-0.3-0.7-0.6-1.1-0.8-0.3-0.3-0.7-0.5-1-0.8-0.4-0.3-0.7-0.5-1.1-0.8-0.3-0.2-0.7-0.5-1-0.7-0.1-0.1-0.3-0.2-0.4-0.3-0.1-0.1-0.3-0.2-0.4-0.2-1.1-0.7-2.1-1.4-3.3-2l-43.9-25.5c0.2 0 0.5-0.1 0.7-0.1 0.5-0.1 1.1-0.2 1.6-0.2 0.6-0.1 1.1-0.1 1.6-0.2s1-0.1 1.6-0.2c0.7-0.1 1.4-0.1 2.1-0.2 0.4 0 0.8-0.1 1.2-0.1 0.9-0.1 1.9-0.1 2.8-0.1h4.6c0.7 0 1.5 0 2.2 0.1 0.4 0 0.8 0 1.2 0.1 0.6 0 1.3 0.1 1.9 0.1 0.4 0 0.9 0.1 1.3 0.1 0.6 0.1 1.2 0.1 1.8 0.2 0.4 0.1 0.9 0.1 1.3 0.2 0.6 0.1 1.1 0.2 1.7 0.2 0.4 0.1 0.9 0.1 1.3 0.2 0.6 0.1 1.1 0.2 1.7 0.3 0.4 0.1 0.9 0.2 1.3 0.3 0.5 0.1 1.1 0.2 1.6 0.4 0.4 0.1 0.9 0.2 1.3 0.3 0.5 0.1 1.1 0.3 1.6 0.4 0.4 0.1 0.8 0.2 1.3 0.4s1 0.3 1.6 0.5c0.4 0.1 0.8 0.3 1.2 0.4 0.5 0.2 1 0.4 1.5 0.5 0.4 0.1 0.8 0.3 1.2 0.4 0.5 0.2 1 0.4 1.6 0.6 0.4 0.2 0.8 0.3 1.1 0.5 0.5 0.2 1.1 0.5 1.6 0.7 0.3 0.2 0.7 0.3 1 0.5 0.6 0.3 1.1 0.6 1.7 0.9 0.3 0.1 0.6 0.3 0.9 0.4 0.8 0.4 1.7 0.9 2.5 1.4L801.6 242c-0.8-0.5-1.7-0.9-2.5-1.4-0.3-0.1-0.6-0.3-0.9-0.4-0.6-0.3-1.1-0.6-1.7-0.9-0.3-0.2-0.7-0.3-1-0.5-0.5-0.2-1.1-0.5-1.6-0.7-0.4-0.2-0.8-0.3-1.1-0.5-0.5-0.2-1-0.4-1.6-0.6-0.4-0.2-0.8-0.3-1.2-0.4-0.5-0.2-1-0.4-1.6-0.5-0.4-0.1-0.8-0.3-1.2-0.4-0.5-0.2-1-0.3-1.6-0.5-0.4-0.1-0.8-0.2-1.3-0.4-0.5-0.1-1.1-0.3-1.6-0.4-0.4-0.1-0.9-0.2-1.3-0.3-0.5-0.1-1.1-0.2-1.6-0.4-0.4-0.1-0.9-0.2-1.3-0.3-0.5-0.1-1.1-0.2-1.7-0.3-0.4-0.1-0.9-0.2-1.3-0.2-0.6-0.1-1.1-0.2-1.7-0.2-0.4-0.1-0.9-0.1-1.3-0.2-0.6-0.1-1.2-0.1-1.8-0.2-0.4 0-0.9-0.1-1.3-0.1-0.6-0.1-1.3-0.1-1.9-0.1-0.4 0-0.8-0.1-1.2-0.1-0.7 0-1.5 0-2.2-0.1H759.5c-0.9 0-1.9 0.1-2.8 0.1-0.4 0-0.8 0.1-1.1 0.1-0.7 0-1.4 0.1-2.1 0.2h-0.2c-0.4 0-0.9 0.1-1.3 0.1-0.6 0.1-1.1 0.1-1.7 0.2-0.5 0.1-1.1 0.1-1.6 0.2-0.6 0.1-1.1 0.1-1.7 0.2-0.5 0.1-1.1 0.2-1.6 0.3-0.6 0.1-1.1 0.2-1.7 0.3-0.5 0.1-1.1 0.2-1.6 0.3-0.6 0.1-1.1 0.2-1.7 0.3-0.1 0-0.2 0-0.3 0.1-0.2 0-0.4 0.1-0.6 0.1-1.4 0.3-2.7 0.6-4.1 1-0.3 0.1-0.6 0.1-0.9 0.2-1.5 0.4-3.1 0.8-4.6 1.3-0.1 0-0.3 0.1-0.4 0.1-0.3 0.1-0.5 0.2-0.8 0.2-1 0.3-2.1 0.7-3.1 1-0.4 0.1-0.8 0.3-1.2 0.4-2.7 0.9-5.4 2-8.2 3.1-0.4 0.2-0.8 0.4-1.3 0.5-0.9 0.4-1.8 0.8-2.8 1.2-0.2 0.1-0.4 0.2-0.7 0.3-0.3 0.1-0.6 0.3-0.9 0.4-0.8 0.3-1.5 0.7-2.3 1.1-0.5 0.3-1.1 0.5-1.6 0.8-0.8 0.4-1.6 0.8-2.3 1.2-0.3 0.2-0.7 0.3-1 0.5-0.4 0.2-0.7 0.4-1.1 0.6-0.1 0.1-0.2 0.1-0.3 0.2-0.1 0.1-0.2 0.1-0.3 0.2-0.1 0.1-0.2 0.1-0.3 0.2-0.1 0.1-0.2 0.2-0.3 0.2l-0.1 0.1-0.2 0.2-0.3 0.3-0.3 0.3-0.3 0.3-0.1 0.1-0.2 0.2c-0.1 0.1-0.2 0.2-0.3 0.4-0.1 0.1-0.2 0.3-0.3 0.4-0.1 0.1-0.2 0.2-0.2 0.3v0.1s0 0.1-0.1 0.1c-0.1 0.2-0.3 0.4-0.4 0.6-0.2 0.2-0.3 0.5-0.5 0.7v0.1c-0.1 0.2-0.2 0.3-0.2 0.5-0.2 0.4-0.4 0.7-0.6 1.1-0.1 0.2-0.2 0.4-0.2 0.6-0.1 0.2-0.2 0.5-0.3 0.7 0 0.1-0.1 0.2-0.1 0.4 0 0.1 0 0.1-0.1 0.2 0 0.1-0.1 0.2-0.1 0.3-0.1 0.2-0.1 0.5-0.2 0.7 0 0.2-0.1 0.4-0.1 0.6 0 0.1 0 0.3-0.1 0.4v2.4c0 0.1 0 0.2 0.1 0.3 0 0.1 0 0.2 0.1 0.3 0 0.1 0.1 0.2 0.1 0.3 0 0.1 0.1 0.2 0.1 0.3 0 0.1 0.1 0.2 0.1 0.3 0 0.1 0.1 0.2 0.2 0.3 0.1 0.1 0.1 0.2 0.2 0.3 0.1 0.1 0.1 0.2 0.2 0.3 0.1 0.1 0.1 0.2 0.2 0.2 0.1 0.1 0.3 0.2 0.4 0.3 0.1 0 0.1 0.1 0.2 0.1l57.5 33.4c-0.3-0.2-0.6-0.4-0.8-0.7l-0.6-0.9c-0.2-0.4-0.3-0.8-0.4-1.2-0.1-0.5-0.1-0.9-0.1-1.5 0-0.5 0-1.1 0.1-1.7 0.1-0.5 0.2-1.1 0.4-1.6 0-0.1 0-0.1 0.1-0.2 0.1-0.4 0.3-0.7 0.4-1.1 0.1-0.2 0.2-0.4 0.2-0.6 0.2-0.4 0.4-0.7 0.5-1.1 0.1-0.2 0.2-0.3 0.2-0.5 0.3-0.5 0.6-1 0.9-1.4v-0.1c0.3-0.5 0.7-0.9 1.1-1.3l1.2-1.2c0.4-0.4 0.9-0.7 1.4-0.9l-17.6-10.2 17.6 10.2c0.7-0.4 1.4-0.7 2.1-1.1l2.4-1.2c0.5-0.3 1.1-0.5 1.6-0.8 0.8-0.4 1.5-0.7 2.3-1.1 0.5-0.2 1-0.5 1.5-0.7 0.9-0.4 1.8-0.8 2.8-1.2 0.4-0.2 0.8-0.4 1.3-0.5 1.3-0.6 2.6-1.1 4-1.6l4.2-1.5c0.4-0.1 0.8-0.3 1.2-0.4 1-0.4 2.1-0.7 3.1-1 0.4-0.1 0.8-0.2 1.2-0.4 1.6-0.5 3.1-0.9 4.6-1.3 0.3-0.1 0.6-0.2 0.9-0.2 1.4-0.4 2.7-0.7 4.1-1 0.3-0.1 0.6-0.1 0.9-0.2 0.6-0.1 1.1-0.2 1.7-0.3 0.5-0.1 1.1-0.2 1.6-0.3 0.6-0.1 1.1-0.2 1.7-0.3h0.2c0.3 0.3 0.6 0.5 0.9 0.8 0.9 0.8 1.8 1.7 2.6 2.6l0.3 0.3c0.8 0.8 1.5 1.7 2.2 2.5 0.2 0.2 0.4 0.4 0.6 0.7 0.7 0.8 1.4 1.7 2 2.5l0.1 0.1c0.7 0.9 1.3 1.8 2 2.7l0.6 0.9c0.4 0.6 0.8 1.2 1.1 1.8 0.2 0.3 0.4 0.7 0.6 1 0.4 0.6 0.7 1.2 1.1 1.9 0.2 0.3 0.4 0.6 0.6 1 0.3 0.6 0.6 1.2 0.9 1.7 0.2 0.3 0.4 0.7 0.5 1 0.4 0.7 0.7 1.4 1.1 2.1 0.1 0.2 0.2 0.5 0.3 0.7 0.3 0.7 0.7 1.5 1 2.2l0.3 0.6c0.4 1 0.8 1.9 1.2 2.9 0.2 0.4 0.3 0.8 0.5 1.2 0.2 0.6 0.4 1.1 0.6 1.7 0.2 0.4 0.3 0.9 0.5 1.3 0.2 0.6 0.4 1.1 0.6 1.7 0 0.1 0 0.1 0.1 0.2 0.6 1.9 1.2 3.9 1.7 5.9v0.1c0.5 1.9 1 3.9 1.4 6 0 0.1 0.1 0.3 0.1 0.4 0.4 1.9 0.7 3.9 1.1 5.9 0 0.2 0.1 0.5 0.1 0.7 0.3 2 0.5 4 0.8 6 0 0.3 0.1 0.6 0.1 0.9 0.2 2 0.4 4.1 0.5 6.2 0 0.5 0.1 0.9 0.1 1.4 0 0.6 0.1 1.2 0.1 1.8 0 0.7 0.1 1.3 0.1 2v4.8c0 1.8 0 3.6-0.1 5.4v1.5c0 0.8-0.1 1.5-0.1 2.3 0 0.6-0.1 1.2-0.1 1.9 0 0.8-0.1 1.5-0.1 2.3 0 0.6-0.1 1.2-0.1 1.8-0.1 0.9-0.2 1.9-0.2 2.8 0 0.5-0.1 1-0.1 1.5-0.1 1.2-0.2 2.4-0.4 3.6 0 0.2-0.1 0.5-0.1 0.7-0.2 1.5-0.4 3.1-0.6 4.6-0.1 0.5-0.1 0.9-0.2 1.4-0.2 1.1-0.3 2.2-0.5 3.3l-0.3 1.5c-0.2 1.4-0.5 2.9-0.8 4.3-0.1 0.3-0.1 0.6-0.2 0.8-0.3 1.7-0.7 3.4-1 5.1l-0.3 1.2c-0.4 1.9-0.8 3.8-1.3 5.7 0 0.1-0.1 0.3-0.1 0.4l-1.5 6c-0.1 0.4-0.2 0.7-0.3 1.1-0.7 2.5-1.4 5.1-2.2 7.6l-0.3 0.9c-0.8 2.6-1.6 5.1-2.5 7.7-0.1 0.3-0.2 0.5-0.3 0.8-0.8 2.2-1.6 4.5-2.4 6.7-0.1 0.4-0.3 0.7-0.4 1.1-0.8 2.2-1.7 4.4-2.5 6.6-0.1 0.4-0.3 0.7-0.4 1.1l-2.7 6.6c-0.1 0.3-0.3 0.7-0.4 1-1 2.2-1.9 4.4-3 6.6-0.1 0.2-0.2 0.5-0.3 0.7l-3.3 6.9c0 0.1-0.1 0.1-0.1 0.2-1.1 2.3-2.3 4.6-3.5 6.8-0.1 0.2-0.2 0.3-0.3 0.5-1.2 2.2-2.3 4.4-3.6 6.6-0.2 0.3-0.3 0.6-0.5 0.8l-3.6 6.3c-0.2 0.3-0.4 0.7-0.6 1-1.3 2.2-2.6 4.3-3.9 6.5-0.2 0.3-0.4 0.6-0.6 1-1.3 2.1-2.7 4.2-4.1 6.3-0.2 0.4-0.5 0.7-0.7 1.1-1.1 1.7-2.2 3.3-3.4 5l-0.1 0.1c-1.1 1.6-2.2 3.2-3.4 4.8l-0.9 1.2c-0.9 1.2-1.7 2.3-2.6 3.5-0.2 0.3-0.4 0.5-0.6 0.8-1.1 1.4-2.1 2.8-3.2 4.2l-0.9 1.2c-0.7 0.9-1.4 1.8-2.2 2.7-0.4 0.5-0.7 0.9-1.1 1.4-0.7 0.9-1.4 1.7-2.1 2.6-0.3 0.4-0.6 0.7-0.9 1.1-2.1 2.5-4.2 4.9-6.4 7.4l-0.1 0.1c-2 2.2-4.1 4.4-6.1 6.6l-0.5 0.5c-1.9 2-3.8 3.9-5.7 5.8l-0.6 0.6c-1.8 1.8-3.7 3.6-5.6 5.3-0.2 0.2-0.5 0.4-0.7 0.6-1.8 1.6-3.6 3.3-5.5 4.8-0.2 0.2-0.5 0.4-0.7 0.6-1.8 1.6-3.7 3.1-5.6 4.6-0.2 0.2-0.4 0.3-0.6 0.5-1.9 1.5-3.8 3-5.7 4.4-0.2 0.1-0.3 0.2-0.5 0.3-2 1.5-4 2.9-6 4.3-0.1 0.1-0.2 0.1-0.3 0.2-2.1 1.4-4.2 2.8-6.3 4.1-0.1 0.1-0.2 0.1-0.3 0.2s-0.2 0.1-0.3 0.2c-0.1 0.1-0.2 0.2-0.3 0.2l-0.3 0.3c-0.1 0.1-0.2 0.1-0.2 0.2l-0.3 0.3-0.3 0.3-0.3 0.3-0.3 0.3c-0.1 0.1-0.2 0.3-0.3 0.4-0.1 0.2-0.2 0.3-0.3 0.5l-0.1 0.1s0 0.1-0.1 0.1c-0.1 0.1-0.2 0.2-0.2 0.3-0.2 0.2-0.3 0.5-0.5 0.7 0 0.1-0.1 0.1-0.1 0.2-0.1 0.2-0.2 0.4-0.3 0.7-0.1 0.3-0.3 0.6-0.4 0.9-0.1 0.2-0.2 0.5-0.3 0.7-0.1 0.2-0.2 0.4-0.2 0.5-0.1 0.2-0.1 0.3-0.2 0.5 0 0.1 0 0.1-0.1 0.2v0.2c-0.1 0.2-0.1 0.5-0.2 0.7 0 0.2-0.1 0.4-0.1 0.6V587.4c0 0.1 0 0.2 0.1 0.3 0 0.1 0.1 0.2 0.1 0.3 0 0.1 0.1 0.2 0.1 0.3 0 0.1 0.1 0.2 0.1 0.3 0 0.1 0.1 0.2 0.1 0.3 0.1 0.1 0.1 0.2 0.2 0.3 0.1 0.1 0.1 0.2 0.2 0.3l0.2 0.2c0.1 0.1 0.3 0.2 0.4 0.3 0.1 0 0.1 0.1 0.2 0.1l57.5 33.4c-0.3-0.2-0.6-0.4-0.8-0.6l-0.6-0.9c-0.2-0.4-0.3-0.8-0.4-1.2-0.1-0.4-0.1-0.9-0.1-1.4 0-0.5 0-1 0.1-1.6v-0.1l0.3-1.5c0-0.1 0-0.1 0.1-0.2 0.1-0.4 0.2-0.7 0.4-1.1 0.1-0.2 0.2-0.5 0.3-0.7 0.1-0.3 0.3-0.6 0.4-0.9 0.1-0.2 0.2-0.4 0.3-0.7 0.2-0.4 0.5-0.9 0.8-1.3 0 0 0-0.1 0.1-0.1 0.3-0.5 0.7-0.9 1-1.3l1.2-1.2c0.4-0.4 0.9-0.7 1.3-1 2.1-1.3 4.2-2.7 6.2-4.1 0.1 0 0.1-0.1 0.2-0.1 0 0 0.1 0 0.1-0.1 2-1.4 4-2.8 6-4.3 0.1-0.1 0.2-0.1 0.3-0.2l0.1-0.1c1.9-1.4 3.8-2.9 5.7-4.4 0.1-0.1 0.3-0.2 0.4-0.3l0.2-0.2c1.9-1.5 3.7-3 5.6-4.6 0.1-0.1 0.3-0.2 0.4-0.3 0.1-0.1 0.2-0.2 0.3-0.2 1.8-1.6 3.7-3.2 5.5-4.8 0.1-0.1 0.3-0.2 0.4-0.4l0.3-0.3c1.9-1.7 3.7-3.5 5.6-5.3 0.1-0.1 0.3-0.2 0.4-0.4l0.2-0.2c1.9-1.9 3.9-3.8 5.8-5.8l0.3-0.3 0.2-0.2c2.1-2.2 4.1-4.3 6.1-6.6l0.1-0.1c2.2-2.4 4.3-4.9 6.4-7.4 0.1-0.1 0.1-0.2 0.2-0.3 0.2-0.3 0.5-0.6 0.7-0.8 0.7-0.9 1.4-1.7 2.2-2.6 0.4-0.5 0.7-0.9 1.1-1.4 0.7-0.9 1.5-1.8 2.2-2.7 0.2-0.3 0.5-0.6 0.7-0.9 0.1-0.1 0.2-0.2 0.2-0.3 1.1-1.4 2.2-2.8 3.2-4.2 0.2-0.3 0.4-0.5 0.6-0.8 0.9-1.2 1.7-2.3 2.6-3.5 0.2-0.2 0.3-0.4 0.5-0.6 0.1-0.2 0.3-0.4 0.4-0.6 1.1-1.6 2.3-3.2 3.4-4.8l0.1-0.1c1.1-1.6 2.2-3.3 3.4-5 0.1-0.2 0.3-0.4 0.4-0.6 0.1-0.2 0.2-0.3 0.3-0.5 1.4-2.1 2.7-4.2 4.1-6.3 0.2-0.3 0.4-0.6 0.6-1 1.3-2.1 2.6-4.3 3.9-6.5 0.1-0.1 0.2-0.3 0.3-0.4l0.3-0.6 3.6-6.3c0.2-0.3 0.3-0.6 0.5-0.8l3.6-6.6c0.1-0.2 0.2-0.3 0.3-0.5 1.2-2.3 2.3-4.5 3.5-6.8 0-0.1 0.1-0.1 0.1-0.2l3.3-6.9c0.1-0.2 0.2-0.5 0.3-0.7l3-6.6c0.1-0.3 0.3-0.7 0.4-1l2.7-6.6c0.1-0.4 0.3-0.7 0.4-1.1 0.9-2.2 1.7-4.4 2.5-6.6 0.1-0.4 0.3-0.7 0.4-1.1 0.8-2.2 1.6-4.5 2.4-6.7 0-0.1 0.1-0.2 0.1-0.3 0.1-0.2 0.1-0.3 0.2-0.5 0.9-2.6 1.7-5.1 2.5-7.7l0.3-0.9c0.8-2.5 1.5-5.1 2.2-7.6 0-0.1 0.1-0.3 0.1-0.4 0.1-0.2 0.1-0.4 0.2-0.7l1.5-6c0-0.1 0.1-0.3 0.1-0.4 0.5-1.9 0.9-3.8 1.3-5.7 0-0.2 0.1-0.5 0.2-0.7 0-0.2 0.1-0.3 0.1-0.5 0.4-1.7 0.7-3.4 1-5.1 0.1-0.3 0.1-0.6 0.2-0.9 0.3-1.4 0.5-2.9 0.8-4.3 0-0.3 0.1-0.5 0.1-0.8 0-0.3 0.1-0.5 0.1-0.8 0.2-1.1 0.3-2.2 0.5-3.3 0.1-0.5 0.1-0.9 0.2-1.4 0.2-1.5 0.4-3.1 0.6-4.6v-0.1c0-0.2 0-0.4 0.1-0.7 0.1-1.2 0.3-2.4 0.4-3.6 0-0.5 0.1-1 0.1-1.5 0.1-0.9 0.2-1.9 0.2-2.8v-0.6c0-0.4 0-0.8 0.1-1.2 0.1-0.8 0.1-1.5 0.1-2.3 0-0.6 0.1-1.2 0.1-1.9 0-0.8 0.1-1.5 0.1-2.3v-0.9-0.7c0-1.8 0.1-3.6 0.1-5.4-0.2 0.4-0.2-0.3-0.2-0.9z" fill="#FFDEDE" p-id="13306"></path><path d="M759.7 281.7c79.3-41.5 142.4-2.9 142.7 88.9 0.3 91.8-62.4 203-141.4 252.9-4.1 2.4-7.1 0.7-7.2-3.7 0-4.2 2.8-9.3 6.4-11.5C832 563 889 461.9 888.8 378.5c-0.2-83.4-57.6-118.5-129.4-80.9-3.6 1.9-6.4 0.1-6.4-4.1 0-4.4 3-9.7 6.7-11.8z" fill="#FFFFFF" p-id="13307"></path><path d="M825.2 489.7c-0.9-56.2-7.8-105.4-21.6-148.3-92.9-11-168.9 73.6-212.9 165.2-64.5 134.2-60.4 313-27.3 439.8 75.9-8.9 146-44.6 192.8-81.4 71-56 71.4-223.3 69-375.3z" fill="#13227a" p-id="13308" data-spm-anchor-id="a313x.7781069.0.i38" class="selected"></path><path d="M562.5 438.5c-1.1 2.9-2.3 5.8-3.3 8.7 1-2.9 2.2-5.8 3.3-8.7zM595.6 369.9c-1.6 2.7-3.1 5.5-4.6 8.2 1.5-2.7 3-5.5 4.6-8.2zM606.2 352.4c-0.7 1.2-1.4 2.3-2.2 3.5 0.7-1.2 1.4-2.3 2.2-3.5zM585.3 388.8c-1.5 2.8-2.9 5.6-4.3 8.4 1.4-2.9 2.8-5.7 4.3-8.4zM590 379.8c-1.6 2.8-3.1 5.7-4.6 8.5 1.6-2.8 3.1-5.6 4.6-8.5zM580.2 398.7c-1.4 2.8-2.8 5.6-4.1 8.4 1.3-2.8 2.7-5.6 4.1-8.4zM619 333c-1.1 1.5-2.1 3.1-3.1 4.6 1-1.6 2-3.1 3.1-4.6zM631.3 315.9c-1.5 2-3 4-4.5 6.1 1.5-2 3-4.1 4.5-6.1zM665.2 275.8c-1.7 1.8-3.4 3.6-5 5.4 1.7-1.9 3.4-3.7 5-5.4zM643.9 299.9c-1.4 1.7-2.8 3.5-4.2 5.2 1.4-1.7 2.8-3.4 4.2-5.2zM543.6 497.9c-0.7 3-1.4 6.1-2.1 9.1 0.6-3 1.3-6 2.1-9.1zM546.2 487.8c-0.8 3.1-1.6 6.3-2.4 9.4 0.7-3.1 1.5-6.3 2.4-9.4zM551.8 468.6c-0.8 2.6-1.6 5.1-2.4 7.7 0.8-2.6 1.6-5.1 2.4-7.7zM483.8 553.1l-121.5-70.2zM571.2 417.7zM575.3 408.9c-1.4 2.9-2.7 5.9-4.1 8.8 1.4-3 2.7-5.9 4.1-8.8zM566.7 428.3c-1.2 2.9-2.4 5.7-3.5 8.6 1.1-2.9 2.3-5.8 3.5-8.6zM559 447.6c-1.1 3-2.2 5.9-3.2 8.9 1.1-3 2.1-6 3.2-8.9zM622 328.7c1.1-1.5 2.1-3 3.2-4.5-0.1 0.1-0.2 0.2-0.2 0.3-1 1.3-2 2.8-3 4.2zM646.1 297.4c1.8-2.1 3.6-4.3 5.4-6.4-1.4 1.6-2.8 3.3-4.2 4.9l-1.2 1.5zM633.6 313c1.3-1.7 2.7-3.5 4-5.2l-1.2 1.5c-0.9 1.2-1.8 2.4-2.8 3.7zM611.8 343.6c0.4-0.6 0.7-1.1 1.1-1.7-0.1 0.1-0.1 0.2-0.2 0.3-0.3 0.5-0.6 0.9-0.9 1.4zM596.5 368.5c1-1.8 2.1-3.5 3.1-5.3-0.4 0.7-0.8 1.3-1.2 2-0.7 1.1-1.3 2.2-1.9 3.3zM546.2 487.6c0.8-3 1.7-6 2.5-8.9-0.8 2.9-1.7 5.9-2.5 8.9zM539.7 515.5c0.5-2.4 1-4.9 1.5-7.3-0.1 0.3-0.1 0.6-0.2 0.9-0.4 2.1-0.9 4.3-1.3 6.4zM552.2 467.2l3-9c-0.2 0.5-0.4 1-0.5 1.6-0.9 2.5-1.7 5-2.5 7.4zM652.2 290.1c2.1-2.4 4.2-4.8 6.3-7.1-0.3 0.3-0.6 0.7-0.9 1-1.8 2-3.6 4-5.4 6.1z" fill="#99BEFF" p-id="13309"></path><path d="M717.1 208.7c0.2 2.2 0.2 4.5-0.1 6.7-0.4 3.9-1.4 7.7-3.1 11.3-1.6 3.5-3.8 6.7-6.6 9.7-1 1-2.1 2.1-3.2 3-0.2 0.1-0.3 0.3-0.5 0.4-2.3 1.9-4.5 3.8-6.8 5.7-0.5 0.4-1 0.8-1.4 1.2-2 1.7-4 3.5-6 5.3-0.4 0.3-0.7 0.6-1.1 0.9-2.2 2-4.4 4.1-6.6 6.2l-1.5 1.5c-1.9 1.8-3.8 3.7-5.7 5.6l-1.1 1.1c-2.2 2.2-4.3 4.4-6.4 6.6-0.6 0.6-1.1 1.2-1.7 1.8-1.7 1.8-3.4 3.6-5 5.4-0.6 0.6-1.1 1.2-1.7 1.8-2.1 2.4-4.2 4.7-6.3 7.1-0.3 0.3-0.5 0.6-0.8 0.9-1.8 2.1-3.6 4.2-5.4 6.4-0.7 0.9-1.4 1.7-2.1 2.6-1.4 1.7-2.8 3.5-4.2 5.2-0.7 0.9-1.4 1.7-2.1 2.6-1.4 1.7-2.7 3.5-4 5.2-0.8 1-1.5 2-2.3 3-1.5 2-3 4-4.5 6.1-0.5 0.7-1 1.4-1.6 2.1-1.1 1.5-2.2 3-3.2 4.5-1 1.4-2 2.8-3 4.3-1.1 1.5-2.1 3.1-3.1 4.6-1 1.5-2 2.9-3 4.4-0.4 0.6-0.7 1.1-1.1 1.7-1.9 2.9-3.8 5.8-5.7 8.8-0.7 1.2-1.4 2.3-2.2 3.5-1.5 2.4-3 4.8-4.4 7.3-1 1.8-2.1 3.5-3.1 5.3-0.3 0.5-0.6 1-0.8 1.5-1.6 2.7-3.1 5.5-4.6 8.2-0.3 0.6-0.6 1.1-0.9 1.7-1.6 2.8-3.1 5.7-4.6 8.5-0.1 0.1-0.1 0.3-0.2 0.4-1.5 2.8-2.9 5.6-4.3 8.4-0.3 0.5-0.5 1.1-0.8 1.6-1.4 2.8-2.8 5.6-4.1 8.4-0.3 0.6-0.5 1.1-0.8 1.7-1.4 2.9-2.7 5.9-4.1 8.8-1.3 2.9-2.6 5.9-3.8 8.8-0.2 0.6-0.5 1.1-0.7 1.7-1.2 2.9-2.4 5.7-3.5 8.6-0.2 0.5-0.4 1.1-0.6 1.6-1.1 2.9-2.3 5.8-3.3 8.7 0 0.1-0.1 0.2-0.1 0.4-1.1 3-2.2 5.9-3.2 8.9l-0.6 1.8-3 9c-0.1 0.5-0.3 0.9-0.4 1.4-0.8 2.6-1.6 5.1-2.4 7.7-0.2 0.8-0.5 1.6-0.7 2.4-0.9 3-1.7 6-2.5 8.9v0.2c-0.8 3.1-1.6 6.3-2.4 9.4-0.1 0.2-0.1 0.5-0.2 0.7-0.7 3-1.4 6.1-2.1 9.1l-0.3 1.2c-0.5 2.4-1 4.9-1.5 7.3-0.2 0.8-0.3 1.7-0.5 2.5-0.6 3.2-1.2 6.4-1.7 9.6v0.2c-0.9 5.2-2.8 10-5.5 14-2.6 3.9-5.9 7.3-9.8 9.9-4.2 2.9-9.1 4.8-14.1 5.7-8 1.4-16.6 0.2-24.4-4.3l-121.5-70.2-148.3-85.7c-7.5-4.3-13-11.1-15.9-19-1.7-4.7-2.4-9.8-2.1-14.9v-0.1-0.1-0.1-0.4c0.2-2.1 0.3-4.1 0.5-6.2 0.1-0.7 0.1-1.4 0.2-2.1 0.2-1.6 0.3-3.1 0.5-4.7 0-0.4 0.1-0.8 0.1-1.2 0-0.3 0.1-0.7 0.1-1 0.2-2.1 0.5-4.1 0.8-6.2 0.1-0.4 0.1-0.7 0.1-1.1 0.3-2.4 0.7-4.8 1.1-7.3 0-0.2 0.1-0.4 0.1-0.6 0.1-0.4 0.1-0.7 0.2-1.1 0.4-2.3 0.8-4.7 1.2-7 0.1-0.5 0.2-0.9 0.3-1.4 0.5-2.7 1-5.3 1.6-8 0.1-0.2 0.1-0.5 0.2-0.7 0.2-0.8 0.3-1.5 0.5-2.3 0.2-0.8 0.3-1.5 0.5-2.3 0.3-1.2 0.6-2.4 0.8-3.7 0.2-0.7 0.3-1.4 0.5-2.1 0.4-1.5 0.7-3 1.1-4.5l0.3-1.2c0.5-1.8 1-3.7 1.4-5.5v-0.2c0.6-2.2 1.2-4.3 1.8-6.5 0.2-0.6 0.3-1.2 0.5-1.7 0.5-1.6 0.9-3.2 1.4-4.8 0.2-0.8 0.5-1.6 0.7-2.4 0.4-1.4 0.9-2.8 1.3-4.2 0.3-0.9 0.6-1.7 0.8-2.6 0.4-1.3 0.9-2.7 1.3-4 0.2-0.5 0.3-0.9 0.5-1.4 0.1-0.4 0.3-0.9 0.4-1.3 0.4-1 0.7-2.1 1.1-3.1 0.3-1 0.7-2 1-2.9 0.4-1 0.7-2 1.1-3.1 0.4-1 0.7-2 1.1-2.9 0.4-1 0.8-2 1.2-3.1 0.4-1 0.7-2 1.1-2.9 0.4-1 0.8-2 1.2-3.1 0.4-1 0.8-1.9 1.2-2.9 0.4-1 0.8-2 1.3-3.1 0.4-1 0.8-1.9 1.2-2.9 0.4-1 0.9-2 1.3-3.1 0.4-1 0.8-1.9 1.2-2.9 0.4-1 0.9-2 1.3-3s0.9-1.9 1.3-2.9c0.5-1 0.9-2 1.4-3 0.4-1 0.9-1.9 1.3-2.9 0.5-1 0.9-2 1.4-3 0.5-1 0.9-1.9 1.4-2.9l1.5-3c0.5-0.9 0.9-1.9 1.4-2.8l1.5-3c0.5-0.9 1-1.9 1.4-2.8l1.5-3c0.5-0.9 1-1.9 1.5-2.8 0.5-1 1.1-2 1.6-3 0.5-0.9 1-1.9 1.5-2.8 0.5-1 1.1-2 1.6-3 0.5-0.9 1-1.8 1.5-2.8 0.5-1 1.1-2 1.7-2.9 0.5-0.9 1-1.8 1.6-2.7 0.6-1 1.1-2 1.7-2.9l1.2-2.1c0.1-0.1 0.1-0.2 0.2-0.4 2.1-3.6 4.3-7.2 6.5-10.7 0.1-0.2 0.3-0.5 0.4-0.7 2.3-3.7 4.7-7.3 7.1-11 0-0.1 0.1-0.1 0.1-0.2 0 0 0-0.1 0.1-0.1 1.8-2.7 3.6-5.3 5.4-8 0.4-0.5 0.7-1 1.1-1.5 1.8-2.6 3.6-5.1 5.4-7.6 0.1-0.2 0.3-0.4 0.4-0.5 0.2-0.3 0.5-0.7 0.7-1l4.2-5.7c0.4-0.5 0.7-1 1.1-1.4l5.1-6.6c0.1-0.2 0.3-0.3 0.4-0.5 0.3-0.4 0.6-0.7 0.9-1.1 0.4-0.6 0.9-1.1 1.3-1.7-95.8 78.9-160.3 259-160.3 467.6 0 232.4 176.4 314 301.7 356.1 40.3 13.5 81.5 16.1 121.1 11.5-33.1-126.8-37.1-305.6 27.3-439.8 44-91.6 120-176.3 212.9-165.2-17.1-53.8-45.3-97.5-86.3-132.8z" fill="#99BEFF" p-id="13310"></path><path d="M667.9 272.9l-1 1c2.1-2.2 4.3-4.4 6.4-6.6-1.8 1.9-3.6 3.8-5.4 5.6zM674.5 266.3c1.9-1.9 3.8-3.8 5.7-5.6-0.7 0.7-1.5 1.4-2.2 2.1-1.2 1.1-2.4 2.3-3.5 3.5zM537.5 527.6c0.5-3.2 1.1-6.4 1.7-9.6-0.6 3.1-1.1 6.2-1.7 9.4 0.1 0 0 0.1 0 0.2z" fill="#99BEFF" p-id="13311"></path><path d="M717.1 208.7c-12.4-10.7-26-20.6-40.8-29.8l-132.5-76.6c-23.4-11.7-46.8-21.4-70.4-27.7-11.3-3-22.6-5.2-33.9-6.5-8.4-0.9-16.9-1.3-25.3-1.2-7 0.2-13.9 0.7-20.9 1.7-6.2 0.9-12.3 2.2-18.5 3.8-5.6 1.5-11.2 3.2-16.8 5.3-5.3 2-10.6 4.2-15.8 6.8l-7.2 3.6c-2.7 1.4-5.3 3-8 4.6-4.9 2.9-9.7 6.1-14.5 9.6-3.9 2.8-7.7 5.7-11.4 8.8 0.8-0.9 1.5-1.9 2.3-2.8-0.8 1-1.5 1.9-2.3 2.9-0.4 0.6-0.9 1.1-1.3 1.7-0.3 0.4-0.6 0.7-0.9 1.1-0.1 0.2-0.3 0.3-0.4 0.5l-5.1 6.6c-0.4 0.5-0.7 1-1.1 1.4l-4.2 5.7c-0.2 0.3-0.5 0.7-0.7 1-0.1 0.2-0.3 0.4-0.4 0.5-1.8 2.5-3.6 5.1-5.4 7.6-0.4 0.5-0.7 1-1.1 1.5-1.8 2.6-3.6 5.3-5.4 8 0 0 0 0.1-0.1 0.1 0 0.1-0.1 0.1-0.1 0.2-2.4 3.6-4.7 7.3-7.1 11-0.1 0.2-0.3 0.5-0.4 0.7-2.2 3.6-4.4 7.1-6.5 10.7-0.1 0.1-0.1 0.2-0.2 0.4l-1.2 2.1c-0.6 1-1.1 2-1.7 2.9-0.5 0.9-1 1.8-1.6 2.7-0.6 1-1.1 2-1.7 2.9-0.5 0.9-1 1.8-1.5 2.8-0.5 1-1.1 2-1.6 3-0.5 0.9-1 1.8-1.5 2.8-0.5 1-1.1 2-1.6 3-0.5 0.9-1 1.9-1.5 2.8l-1.5 3c-0.5 0.9-1 1.9-1.4 2.8l-1.5 3c-0.5 0.9-0.9 1.9-1.4 2.8l-1.5 3c-0.5 1-0.9 1.9-1.4 2.9-0.5 1-0.9 2-1.4 3-0.4 1-0.9 1.9-1.3 2.9-0.5 1-0.9 2-1.4 3-0.4 1-0.9 1.9-1.3 2.9s-0.9 2-1.3 3-0.8 1.9-1.2 2.9c-0.4 1-0.9 2-1.3 3.1-0.4 1-0.8 1.9-1.2 2.9-0.4 1-0.8 2-1.3 3.1-0.4 1-0.8 1.9-1.2 2.9-0.4 1-0.8 2-1.2 3.1-0.4 1-0.8 1.9-1.1 2.9-0.4 1-0.8 2-1.2 3.1-0.4 1-0.7 2-1.1 2.9-0.4 1-0.7 2-1.1 3.1-0.4 1-0.7 2-1 2.9-0.4 1-0.7 2.1-1.1 3.1-0.1 0.4-0.3 0.9-0.4 1.3-0.2 0.5-0.3 0.9-0.5 1.4-0.4 1.3-0.9 2.7-1.3 4-0.3 0.9-0.6 1.7-0.8 2.6-0.4 1.4-0.9 2.8-1.3 4.2-0.2 0.8-0.5 1.6-0.7 2.4-0.5 1.6-1 3.2-1.4 4.8-0.2 0.6-0.3 1.2-0.5 1.7-0.6 2.2-1.2 4.3-1.8 6.5v0.2c-0.5 1.8-1 3.7-1.4 5.5l-0.3 1.2c-0.4 1.5-0.8 3-1.1 4.5-0.2 0.7-0.3 1.4-0.5 2.1-0.3 1.2-0.6 2.4-0.8 3.7-0.2 0.8-0.3 1.5-0.5 2.3-0.2 0.8-0.3 1.5-0.5 2.3-0.1 0.2-0.1 0.5-0.2 0.7-0.6 2.7-1.1 5.3-1.6 8-0.1 0.5-0.2 0.9-0.3 1.4-0.4 2.3-0.8 4.7-1.2 7-0.1 0.4-0.1 0.7-0.2 1.1 0 0.2-0.1 0.4-0.1 0.6-0.4 2.4-0.8 4.9-1.1 7.3-0.1 0.4-0.1 0.7-0.1 1.1-0.3 2.1-0.6 4.1-0.8 6.2 0 0.3-0.1 0.7-0.1 1 0 0.4-0.1 0.8-0.1 1.2-0.2 1.6-0.3 3.1-0.5 4.7-0.1 0.7-0.1 1.4-0.2 2.1-0.2 2.1-0.4 4.1-0.5 6.2v0.6c-0.4 5.2 0.4 10.2 2.1 14.9 2.9 7.8 8.4 14.6 15.9 19l148.3 85.7 121.5 70.2c7.8 4.5 16.4 5.7 24.4 4.3 5.1-0.9 9.9-2.9 14.1-5.7 3.8-2.6 7.2-5.9 9.8-9.9 2.7-4.1 4.6-8.8 5.5-14v-0.2-0.2c0.5-3.1 1.1-6.2 1.7-9.4 0.2-0.8 0.3-1.7 0.5-2.5 0.4-2.1 0.8-4.3 1.3-6.4 0.1-0.3 0.1-0.6 0.2-0.9l0.3-1.2c0.7-3 1.4-6.1 2.1-9.1 0.1-0.2 0.1-0.5 0.2-0.7 0.8-3.1 1.6-6.3 2.4-9.4v-0.2-0.1c0.8-3 1.6-5.9 2.5-8.9 0.2-0.8 0.5-1.6 0.7-2.4 0.8-2.6 1.6-5.1 2.4-7.7 0.1-0.5 0.3-0.9 0.4-1.4 0.8-2.5 1.6-4.9 2.4-7.4 0.2-0.5 0.4-1 0.5-1.6l0.6-1.8c1-3 2.1-6 3.2-8.9 0-0.1 0.1-0.2 0.1-0.4l3.3-8.7c0.2-0.5 0.4-1.1 0.6-1.6 1.1-2.9 2.3-5.8 3.5-8.6 0.2-0.6 0.5-1.1 0.7-1.7 1.3-3 2.5-5.9 3.8-8.8 1.3-2.9 2.7-5.9 4.1-8.8 0.3-0.6 0.5-1.1 0.8-1.7 1.3-2.8 2.7-5.6 4.1-8.4 0.3-0.5 0.5-1.1 0.8-1.6 1.4-2.8 2.8-5.6 4.3-8.4 0.1-0.1 0.1-0.3 0.2-0.4 1.5-2.9 3-5.7 4.6-8.5 0.3-0.6 0.6-1.1 0.9-1.7 1.5-2.8 3.1-5.5 4.6-8.2 0.3-0.5 0.6-1 0.8-1.5 0.6-1.1 1.3-2.2 1.9-3.3 0.4-0.7 0.8-1.3 1.2-2 1.5-2.4 2.9-4.9 4.4-7.3 0.7-1.2 1.4-2.3 2.2-3.5 1.9-3 3.7-5.9 5.7-8.8 0.3-0.5 0.6-0.9 0.9-1.4 0.1-0.1 0.1-0.2 0.2-0.3 1-1.5 2-2.9 3-4.4 1-1.5 2.1-3.1 3.1-4.6 1-1.4 2-2.9 3-4.3l3-4.2c0.1-0.1 0.2-0.2 0.2-0.3 0.5-0.7 1-1.4 1.6-2.1 1.5-2 3-4.1 4.5-6.1 0.8-1 1.5-2 2.3-3 0.9-1.2 1.9-2.5 2.8-3.7l1.2-1.5c0.7-0.9 1.4-1.8 2.1-2.6 1.4-1.7 2.8-3.5 4.2-5.2 0.7-0.9 1.4-1.7 2.1-2.6 0.4-0.5 0.8-1 1.2-1.4 1.4-1.7 2.8-3.3 4.2-4.9 0.3-0.3 0.5-0.6 0.8-0.9 1.8-2.1 3.6-4.1 5.4-6.1 0.3-0.3 0.6-0.7 0.9-1 0.5-0.6 1.1-1.2 1.7-1.8 1.7-1.8 3.3-3.6 5-5.4 0.6-0.6 1.1-1.2 1.7-1.8 0.3-0.3 0.6-0.7 1-1 1.8-1.9 3.6-3.7 5.4-5.5l1.1-1.1 3.5-3.5c0.7-0.7 1.5-1.4 2.2-2.1l1.5-1.5c2-1.9 4.1-3.9 6.1-5.7 0.2-0.1 0.3-0.3 0.5-0.4 0.3-0.3 0.7-0.6 1.1-0.9 2-1.8 4-3.6 6-5.3 0.5-0.4 1-0.8 1.4-1.2 0.3-0.3 0.6-0.5 0.9-0.8 1.9-1.6 3.9-3.3 5.8-4.9 0.2-0.1 0.3-0.3 0.5-0.4 1.2-1 2.2-2 3.2-3 2.8-2.9 5-6.2 6.6-9.7 1.7-3.6 2.7-7.4 3.1-11.3 0.1-2.2 0.1-4.4-0.1-6.7z" fill="#13227a" p-id="13312" data-spm-anchor-id="a313x.7781069.0.i37" class="selected"></path><path d="M425.6 614.2l-0.5 159.6c-0.1 29.7-32.3 48.2-58 33.4l-130.8-75.7c-12-6.9-19.3-19.7-19.3-33.6l0.5-159.6c0.1-29.7 32.3-48.2 58-33.4l130.8 75.7c12 7 19.3 19.8 19.3 33.6z" fill="#FFE872" p-id="13313"></path></svg>