<?xml version="1.0" standalone="no"?><!DOCTYPE svg PUBLIC "-//W3C//DTD SVG 1.1//EN" "http://www.w3.org/Graphics/SVG/1.1/DTD/svg11.dtd"><svg t="1585025394730" class="icon" viewBox="0 0 1024 1024" version="1.1" xmlns="http://www.w3.org/2000/svg" p-id="3169" width="85" height="85" xmlns:xlink="http://www.w3.org/1999/xlink"><defs><style type="text/css"></style></defs><path d="M512 0C230.4 0 0 230.4 0 512s230.4 512 512 512 512-230.4 512-512S793.6 0 512 0z m291.84 389.12l-363.52 363.52s-5.12 5.12-10.24 5.12-5.12 5.12-10.24 5.12h-40.96c-5.12 0-5.12-5.12-10.24-5.12s-5.12-5.12-10.24-5.12l-143.36-143.36c-20.48-20.48-20.48-51.2 0-71.68 20.48-20.48 51.2-20.48 71.68 0l107.52 107.52 327.68-327.68c20.48-20.48 51.2-20.48 71.68 0 30.72 20.48 25.6 51.2 10.24 71.68z" fill="#000000" p-id="3170"></path></svg>