<?xml version="1.0" standalone="no"?><!DOCTYPE svg PUBLIC "-//W3C//DTD SVG 1.1//EN" "http://www.w3.org/Graphics/SVG/1.1/DTD/svg11.dtd"><svg t="1582954152162" class="icon" viewBox="0 0 1024 1024" version="1.1" xmlns="http://www.w3.org/2000/svg" p-id="22755" width="70" height="70" xmlns:xlink="http://www.w3.org/1999/xlink"><defs><style type="text/css"></style></defs><path d="M919.56568 925.168H53.40568a33.048 33.048 0 1 0 0 66.112h866.16a33.04 33.04 0 0 0 33.056-33.056 33.032 33.032 0 0 0-33.056-33.056zM779.41368 103.864a33.12 33.12 0 0 0-7.448 0.912c-7.128-19.48-14.224-37.168-21.216-52.624A33 33 0 0 0 720.66168 32.72H220.26168a33.048 33.048 0 0 0-30.12 19.432 762.208 762.208 0 0 0-20.144 49.648H33.06968A33.048 33.048 0 0 0 3.62168 149.832l98.024 192.744c-37.68 166.76-65.92 360.752-65.92 512.232a33.048 33.048 0 0 0 33.056 33.056h803.336a33.04 33.04 0 0 0 33.056-33.056c0-208.144-53.28-496.52-111.184-684.184 91.648 7.44 163.936 84.344 163.936 177.888a33.024 33.024 0 0 0 33.048 33.048 33.04 33.04 0 0 0 33.056-33.048c-0.008-134.896-109.76-244.648-244.616-244.648z m-692.448 64.04h59.36l-9.192 35.472a2159.152 2159.152 0 0 0-11.328 40.888l-38.84-76.36z m15.312 653.848c3.976-149.016 33.616-336.464 70.624-493.04l27.032-104.208c13.92-48.768 28.224-91.696 42.12-125.672h456.792c62.56 152.904 133.448 486.384 139.776 722.92H102.27768z" fill="#2c2c2c" p-id="22756"></path></svg>