<?xml version="1.0" standalone="no"?><!DOCTYPE svg PUBLIC "-//W3C//DTD SVG 1.1//EN" "http://www.w3.org/Graphics/SVG/1.1/DTD/svg11.dtd"><svg t="1582954093607" class="icon" viewBox="0 0 1024 1024" version="1.1" xmlns="http://www.w3.org/2000/svg" p-id="20138" width="70" height="70" xmlns:xlink="http://www.w3.org/1999/xlink"><defs><style type="text/css"></style></defs><path d="M840.7 376.7l-53.8-53.8c4.1-4 7.9-7.7 11.4-11.2 14.7-14.7 23.9-33.3 25.8-52.4 2.1-20.4-4.1-38.9-17.3-52.2s-31.8-19.5-52.2-17.3c-19.1 2-37.8 11.2-52.4 25.8-3.5 3.5-7.3 7.3-11.2 11.4l-65.1-65.1c-6.2-6.2-6.2-16.4 0-22.6 6.2-6.2 6.2-16.4 0-22.6s-16.4-6.2-22.6 0c-18.7 18.7-18.7 49.2 0 67.9l65.7 65.7-129.4 142.1-61-61c-49.9-49.9-131.1-49.9-181 0-24.2 24.2-37.5 56.3-37.5 90.5s13.3 66.3 37.5 90.5l72.8 72.8-125.8 145.7-71.4-71.4c-6.2-6.2-16.4-6.2-22.6 0-6.2 6.2-6.2 16.4 0 22.6l73.1 73.1s-71.3 83.1-73.8 86.1c-0.9 1-1.7 2.2-2.3 3.3-1.2 2.4-1.8 5.1-1.7 7.8 0.1 2 0.5 4.1 1.4 6 0.8 1.8 1.9 3.5 3.4 4.9 1.3 1.3 2.7 2.3 4.3 3 2.2 1.1 4.6 1.6 6.9 1.6 2.4 0 4.8-0.5 7-1.6 1.3-0.6 2.5-1.4 3.6-2.4 2.9-2.5 86.1-73.8 86.1-73.8l84.4 84.4c24.2 24.2 56.3 37.5 90.5 37.5s66.3-13.3 90.5-37.5 37.5-56.3 37.5-90.5-13.3-66.3-37.5-90.5l-71.2-71.2 144.7-126.8 62.3 62.3c49.9 49.9 131.1 49.9 181 0 49.8-50 49.8-131.2-0.1-181.1zM320.3 489.8c-37.4-37.4-37.4-98.3 0-135.8 37.4-37.4 98.3-37.4 135.8 0l62.3 62.3-126.9 144.8-71.2-71.3z m181 226.3c37.4 37.4 37.4 98.3 0 135.8-37.4 37.4-98.3 37.4-135.8 0l-82.7-82.7 145.6-125.9 72.9 72.8z m-189.9-13.8L541 439.1l33.7 33.7-263.3 229.5z m250.9-287.2s127.3-141.8 162.5-176.9c9.5-9.5 21.3-15.4 33.1-16.6 1.5-0.2 2.9-0.2 4.3-0.2 8.8 0 16.5 2.9 22 8.4 6.3 6.3 9.2 15.7 8.1 26.3-1.2 11.8-7.1 23.6-16.6 33.1-3.5 3.5-7.3 7.3-11.4 11.2l-14.1-14.1 11.3-11.3c6.2-6.2 6.2-16.4 0-22.6-6.2-6.2-16.4-6.2-22.6 0l-22.6 22.5-22.6 22.6c-6.2 6.2-6.2 16.4 0 22.6 3.1 3.1 7.2 4.7 11.3 4.7s8.2-1.6 11.3-4.7l11.3-11.3 13.5 13.5c-36.6 34.5-86.8 79.7-142.4 129.1l-36.4-36.3z m255.8 120c-37.4 37.4-98.3 37.4-135.8 0l-61-61 142.4-129.2 54.3 54.3c37.5 37.6 37.5 98.5 0.1 135.9z" fill="#1E1E1E" p-id="20139"></path></svg>